# xmcd
#
# Track frame offsets:
#  150
#  15262
#  32820
#
# Disc length: 695 seconds
#
# Revision: 0
# Processed by: cddbd v1.5.1PL0 Copyright (c) Steve Scherf et al.
# Submitted via: Collectorz.com_Music_Collector 6.9
#
DISCID=1502b503
DTITLE=Grandaddy - A.M. 180
DYEAR=1998
DGENRE=Rock
TTITLE0=A.M. 180
TTITLE1=For The Dishwasher
TTITLE2=Glassy-Dusty
EXTD=
EXTT0=
EXTT1=
EXTT2=
PLAYORDER=
